<?xml version="1.0" standalone="no"?>
<!DOCTYPE svg PUBLIC "-//W3C//DTD SVG 20010904//EN"
 "http://www.w3.org/TR/2001/REC-SVG-20010904/DTD/svg10.dtd">
<svg version="1.0" xmlns="http://www.w3.org/2000/svg"
 width="1200.000000pt" height="1200.000000pt" viewBox="0 0 1200.000000 1200.000000"
 preserveAspectRatio="xMidYMid meet">
<metadata>
Created by potrace 1.14, written by Peter Selinger 2001-2017
</metadata>
<g transform="translate(0.000000,1200.000000) scale(0.100000,-0.100000)"
fill="#000000" stroke="none">
<path d="M1945 9851 c-7 -13 10 -120 41 -251 29 -124 84 -240 153 -326 53 -66
62 -71 191 -106 l85 -23 18 -84 c16 -79 20 -87 74 -143 32 -32 67 -61 78 -63
59 -14 516 -35 762 -35 l282 0 -5 -47 c-2 -27 -8 -88 -13 -136 -5 -49 -11 -90
-13 -93 -9 -8 -176 18 -270 43 -134 35 -151 19 -108 -104 11 -32 20 -59 20
-62 0 -2 -82 -1 -182 2 -155 6 -328 23 -525 53 -40 6 -43 5 -53 -22 -15 -38
-15 -377 -1 -429 7 -28 24 -51 55 -76 l45 -36 339 -7 c187 -4 412 -4 501 0
l160 7 -5 -49 c-2 -27 -36 -461 -75 -964 -38 -503 -74 -969 -80 -1035 -5 -66
-12 -162 -16 -212 l-6 -93 71 0 c39 0 73 -4 77 -10 19 -30 -33 -90 -79 -90
-27 0 -76 50 -76 78 0 25 -1 25 -17 9 -16 -16 -16 -20 -3 -45 23 -40 77 -73
109 -66 41 9 75 38 87 72 8 25 13 29 22 20 7 -7 12 -27 12 -44 0 -37 -38 -74
-76 -74 -12 0 -26 -4 -29 -10 -3 -5 -20 -10 -38 -10 -24 0 -42 11 -79 47 -50
49 -69 41 -21 -9 23 -24 27 -37 27 -86 l1 -57 109 -3 c121 -3 136 3 136 52 0
36 -15 56 -41 56 -14 0 -11 6 12 29 33 34 38 78 13 116 l-16 25 222 0 222 0
-50 -92 c-27 -51 -59 -113 -72 -137 l-22 -43 -32 31 c-46 45 -57 38 -12 -8
l38 -39 -72 -139 c-141 -268 -178 -340 -270 -518 -51 -99 -116 -225 -145 -280
-29 -55 -90 -172 -135 -260 -45 -88 -111 -214 -145 -280 -34 -66 -104 -201
-155 -300 -51 -99 -107 -207 -125 -240 -54 -99 -285 -553 -285 -559 0 -3 1550
-6 3444 -6 l3445 0 -46 88 c-25 48 -80 155 -123 237 -43 83 -112 218 -155 300
-43 83 -106 204 -140 270 -34 66 -102 197 -150 290 -48 94 -145 280 -215 415
-70 135 -167 322 -215 415 -48 94 -109 211 -135 260 -99 188 -300 583 -300
589 0 3 142 6 315 6 l316 0 -6 48 c-3 26 -14 171 -25 322 -11 151 -25 325 -30
385 -15 156 -120 1535 -120 1569 l0 29 156 -8 c86 -4 309 -4 496 0 l340 8 48
38 c62 49 65 62 65 306 0 233 1 231 -97 214 -138 -24 -429 -51 -550 -51 l-126
0 19 55 c24 68 25 121 3 129 -9 3 -71 -7 -137 -23 -67 -16 -150 -32 -183 -34
l-61 -5 -6 52 c-3 28 -9 90 -13 139 l-7 87 284 0 c247 0 693 21 755 35 11 2
47 33 80 67 57 59 61 68 78 144 l17 81 67 18 c139 35 155 43 199 98 61 78 109
163 137 248 31 92 72 309 63 332 -9 24 -39 21 -96 -7 -64 -33 -135 -50 -331
-80 -572 -87 -1422 -157 -2312 -188 -468 -17 -2152 -17 -2608 0 -798 29 -1460
78 -2080 153 -328 39 -478 68 -565 110 -64 30 -99 36 -110 20z m3735 -1088 c0
-32 -3 -122 -7 -200 l-6 -143 -583 0 -582 0 19 50 c23 60 24 80 5 106 -14 19
-16 19 -93 -8 -94 -33 -196 -58 -241 -58 -32 0 -33 1 -28 33 3 17 8 68 11 112
3 44 8 99 12 123 l5 42 744 0 744 0 0 -57z m2124 35 c6 -26 26 -243 26 -275 0
-20 -1 -20 -81 -6 -44 8 -121 27 -171 44 -49 17 -96 28 -104 25 -19 -7 -18
-77 1 -123 8 -19 15 -37 15 -39 0 -2 -263 -4 -584 -4 l-584 0 -4 193 c-2 105
-2 195 0 200 2 4 336 7 742 7 l740 0 4 -22z m60 -1045 c3 -76 13 -313 21 -528
35 -920 45 -1189 50 -1345 3 -91 8 -200 10 -242 l5 -78 -1950 0 -1950 0 0 83
c0 45 5 188 10 317 13 302 35 895 56 1460 8 245 17 451 19 458 4 9 385 12
1863 12 l1859 0 7 -137z"/>
<path d="M2255 7120 c21 -22 41 -37 44 -35 6 7 -60 75 -73 75 -6 0 7 -18 29
-40z"/>
<path d="M2120 7135 c0 -3 20 -26 44 -51 44 -43 86 -58 101 -34 4 7 -2 9 -19
4 -20 -5 -32 1 -58 28 -41 41 -68 63 -68 53z"/>
<path d="M2908 7096 c-10 -7 -18 -22 -18 -32 0 -30 -25 -58 -82 -96 -128 -85
-286 -127 -764 -203 -31 -5 -32 -4 -48 53 -9 32 -16 68 -16 80 0 21 -5 22 -73
22 -71 0 -73 0 -84 -30 -6 -16 -25 -38 -43 -47 l-32 -18 7 -67 c27 -285 193
-465 497 -538 143 -34 316 -43 560 -30 238 13 252 11 291 -42 25 -34 33 -112
17 -179 l-13 -52 -437 7 -436 7 -61 -45 c-104 -76 -174 -188 -215 -340 -26
-99 -33 -296 -15 -411 8 -49 13 -91 12 -93 -1 -2 -48 4 -104 12 -168 26 -244
75 -271 178 l-11 38 -75 0 -76 0 7 -32 7 -31 -75 6 c-82 6 -148 33 -171 70 -8
12 -17 41 -21 65 l-7 42 -45 0 -45 0 7 -47 c20 -142 101 -204 291 -223 74 -7
101 -14 109 -27 66 -110 197 -170 425 -194 104 -12 108 -13 126 -43 65 -110
222 -216 382 -256 l43 -11 -6 -92 c-29 -432 -93 -728 -174 -801 -14 -13 -51
-24 -114 -33 -108 -16 -186 -50 -223 -98 -31 -42 -54 -113 -54 -172 l0 -43
178 0 177 0 73 143 c40 78 110 215 156 303 46 89 125 242 176 340 51 99 114
220 140 269 26 50 97 187 159 306 l111 216 -203 6 c-305 8 -439 44 -526 143
-60 68 -76 126 -76 269 0 105 3 127 24 173 31 68 95 124 174 153 57 20 86 22
387 29 305 6 329 8 382 29 72 28 122 83 139 153 15 66 6 275 -15 344 -35 113
-109 170 -256 199 -41 8 -167 19 -280 25 -448 23 -551 47 -680 159 -29 25 -33
32 -20 41 8 5 26 10 39 10 12 0 87 11 165 26 333 60 528 131 631 231 55 54 75
95 75 153 l0 40 -42 0 c-24 0 -51 -7 -60 -14z"/>
<path d="M8994 7086 c-11 -46 15 -106 69 -160 115 -114 338 -192 726 -255 68
-12 126 -22 128 -25 9 -8 -93 -87 -144 -111 -104 -50 -192 -65 -428 -75 -446
-19 -562 -48 -637 -155 -42 -61 -58 -141 -58 -290 0 -121 2 -135 26 -183 19
-38 38 -59 71 -79 78 -46 135 -53 423 -53 288 0 359 -9 448 -54 93 -47 138
-128 148 -266 7 -92 -14 -203 -51 -266 -48 -81 -147 -136 -300 -164 -33 -6
-151 -14 -262 -17 l-203 -6 86 -166 c140 -269 216 -416 304 -586 46 -88 109
-209 140 -270 124 -237 255 -492 269 -522 l15 -33 185 0 184 0 -6 59 c-17 162
-104 237 -297 256 -51 6 -71 13 -94 34 -52 48 -97 178 -131 376 -18 106 -45
385 -45 461 l0 53 57 16 c146 42 275 127 343 223 l42 59 107 12 c225 24 337
74 416 184 18 26 28 29 112 37 183 19 268 76 288 195 4 22 9 48 12 58 4 14 -3
17 -41 17 -42 0 -46 -2 -52 -27 -16 -78 -29 -98 -77 -122 -31 -15 -73 -26
-118 -29 l-69 -5 0 32 0 31 -74 0 -73 0 -7 -37 c-17 -106 -114 -162 -325 -188
l-53 -6 6 33 c68 370 -30 699 -250 835 l-39 24 -431 -7 c-356 -5 -433 -4 -440
7 -4 7 -10 50 -12 94 -5 99 11 139 65 161 30 13 65 14 248 4 470 -26 732 37
908 216 82 82 146 246 147 370 0 45 -3 52 -26 62 -14 7 -32 28 -40 47 l-14 35
-68 0 -68 0 -17 -72 c-9 -39 -20 -75 -24 -79 -5 -4 -64 1 -133 11 -281 42
-513 103 -626 166 -65 35 -124 93 -124 121 0 24 -31 42 -72 43 -31 0 -39 -4
-44 -24z"/>
<path d="M8422 5378 c-18 -18 -15 -85 4 -92 30 -11 209 -7 222 6 20 20 15 76
-7 88 -28 14 -204 13 -219 -2z"/>
<path d="M3260 5328 c0 -16 51 -68 67 -68 21 0 15 14 -20 48 -35 34 -47 39
-47 20z"/>
<path d="M8726 5304 c-9 -8 -19 -26 -22 -39 -3 -14 -11 -22 -19 -19 -7 3 -15
1 -18 -4 -9 -13 179 -196 193 -187 8 5 2 18 -21 41 -26 27 -29 34 -15 34 29 0
12 25 -20 28 -63 7 -99 88 -58 133 20 22 1 35 -20 13z"/>
<path d="M3235 5280 c-4 -6 -4 -22 -1 -36 8 -32 -18 -82 -48 -90 -13 -3 -29
-17 -35 -32 -11 -23 -9 -29 18 -56 21 -21 34 -27 41 -20 7 7 1 19 -20 39 -32
30 -38 47 -17 44 25 -3 35 2 61 27 20 20 26 37 26 68 0 46 -13 75 -25 56z"/>
<path d="M8495 4920 c-54 -55 -97 -102 -94 -104 3 -3 50 39 104 94 54 55 97
102 94 104 -3 3 -50 -39 -104 -94z"/>
<path d="M3214 4726 c-3 -7 -4 -31 -2 -52 l3 -39 115 0 115 0 0 50 0 50 -113
3 c-90 2 -113 0 -118 -12z"/>
<path d="M8592 4728 c-15 -15 -16 -70 0 -86 8 -8 48 -12 114 -12 116 0 127 6
122 67 l-3 38 -110 3 c-77 2 -114 -1 -123 -10z"/>
<path d="M2977 4524 c-14 -15 -7 -92 9 -98 24 -9 197 -7 212 3 9 5 12 24 10
52 l-3 44 -111 3 c-60 1 -113 -1 -117 -4z"/>
<path d="M8832 4518 c-7 -7 -12 -26 -12 -43 0 -49 14 -55 125 -55 111 0 125 6
125 55 0 49 -14 55 -125 55 -65 0 -105 -4 -113 -12z"/>
<path d="M3062 4273 l3 -48 115 0 115 0 3 48 3 47 -121 0 -121 0 3 -47z"/>
<path d="M8737 4314 c-12 -13 -7 -71 7 -83 9 -8 51 -11 122 -9 l109 3 0 45 0
45 -116 3 c-63 1 -118 -1 -122 -4z"/>
<path d="M2767 4164 c-4 -4 -7 -24 -7 -45 0 -48 9 -51 145 -47 l100 3 0 45 0
45 -116 3 c-63 1 -118 -1 -122 -4z"/>
<path d="M9032 4123 l3 -48 115 0 115 0 3 48 3 47 -121 0 -121 0 3 -47z"/>
<path d="M2575 3799 c-4 -6 15 -30 41 -55 49 -44 50 -45 114 -42 60 3 65 5 74
30 7 18 6 35 -2 53 -11 24 -14 25 -116 25 -64 0 -107 -4 -111 -11z"/>
<path d="M9236 3794 c-10 -26 -7 -69 6 -82 8 -8 48 -12 113 -12 111 0 125 6
125 55 0 49 -13 55 -131 55 -88 0 -108 -3 -113 -16z"/>
<path d="M2560 3742 c0 -25 5 -33 25 -38 43 -11 47 0 10 36 l-35 34 0 -32z"/>
<path d="M2728 3644 c-4 -3 16 -28 43 -55 47 -48 50 -49 108 -49 63 0 71 6 71
59 0 44 -16 51 -120 51 -53 0 -99 -3 -102 -6z"/>
<path d="M9102 3641 c-9 -5 -12 -24 -10 -52 l3 -44 115 0 115 0 3 44 c2 28 -1
47 -10 52 -7 5 -56 9 -108 9 -52 0 -101 -4 -108 -9z"/>
<path d="M2700 3598 c0 -43 18 -60 60 -56 l31 3 -45 45 -46 44 0 -36z"/>
<path d="M2580 3265 l0 -55 89 0 c96 0 101 3 101 59 0 43 -16 51 -107 51 l-83
0 0 -55z"/>
<path d="M9282 3311 c-9 -5 -12 -24 -10 -52 l3 -44 73 -3 72 -3 0 56 0 55 -62
0 c-35 0 -69 -4 -76 -9z"/>
</g>
</svg>
